<svg width="163" height="39" viewBox="0 0 163 39" fill="none" xmlns="http://www.w3.org/2000/svg">
<g filter="url(#filter0_d_419_1671)">
<path d="M7.91309 11.2871V27.6895H16.5205V30H4.81543V11.2871H7.91309ZM26.1943 15.6035C27.1253 15.6543 27.9717 15.8828 28.7334 16.2891C29.4951 16.6784 30.1299 17.2031 30.6377 17.8633C31.1624 18.5065 31.5687 19.2598 31.8564 20.123C32.1442 20.9863 32.2881 21.9089 32.2881 22.8906C32.2881 23.8724 32.1357 24.7949 31.8311 25.6582C31.5433 26.5046 31.137 27.2493 30.6123 27.8926C30.0876 28.5189 29.4443 29.0267 28.6826 29.416C27.9209 29.8053 27.0915 30.0339 26.1943 30.1016V27.6641C27.0407 27.4779 27.7262 26.9447 28.251 26.0645C28.7926 25.1842 29.0635 24.1263 29.0635 22.8906C29.0635 22.2643 28.9958 21.6803 28.8604 21.1387C28.7419 20.5801 28.5557 20.0807 28.3018 19.6406C28.0479 19.2005 27.7432 18.8366 27.3877 18.5488C27.0322 18.2611 26.6344 18.0749 26.1943 17.9902V15.6035ZM19.1104 22.8398C19.1104 21.8581 19.2542 20.944 19.542 20.0977C19.8298 19.2513 20.236 18.515 20.7607 17.8887C21.3024 17.2454 21.9456 16.7292 22.6904 16.3398C23.4352 15.9505 24.2562 15.7135 25.1533 15.6289V17.9902C24.307 18.1764 23.6299 18.7096 23.1221 19.5898C22.6143 20.4701 22.3604 21.528 22.3604 22.7637C22.3604 23.39 22.4196 23.9824 22.5381 24.541C22.6735 25.0996 22.8597 25.599 23.0967 26.0391C23.3337 26.4792 23.6214 26.8431 23.96 27.1309C24.3154 27.4186 24.7132 27.5964 25.1533 27.6641V30.1016C24.2223 30.0339 23.3844 29.8053 22.6396 29.416C21.8949 29.0098 21.2601 28.485 20.7354 27.8418C20.2106 27.1986 19.8044 26.4453 19.5166 25.582C19.2458 24.7188 19.1104 23.8047 19.1104 22.8398ZM35.9443 19.7676C35.9443 19.1243 36.0628 18.5488 36.2998 18.041C36.5368 17.5163 36.8669 17.0762 37.29 16.7207C37.7132 16.3483 38.1872 16.0605 38.7119 15.8574C39.2536 15.6374 39.8122 15.502 40.3877 15.4512V17.9902C39.9476 18.0749 39.6006 18.2526 39.3467 18.5234C39.1097 18.7943 38.9912 19.1751 38.9912 19.666C38.9912 20.0723 39.1182 20.4023 39.3721 20.6562C39.6429 20.8932 39.9814 21.1048 40.3877 21.291V24.0078C40.0999 23.9232 39.8037 23.8301 39.499 23.7285C39.2113 23.61 38.9235 23.4831 38.6357 23.3477C37.7386 22.8737 37.0615 22.3743 36.6045 21.8496C36.1644 21.3249 35.9443 20.6309 35.9443 19.7676ZM44.4248 18.7012C43.9678 18.4642 43.4769 18.2865 42.9521 18.168C42.4443 18.0495 41.9365 17.9733 41.4287 17.9395V15.4258C42.1904 15.4596 42.8929 15.5697 43.5361 15.7559C44.1794 15.9251 44.8057 16.2044 45.415 16.5938L44.4248 18.7012ZM37.29 26.8008C37.6286 27.0378 38.0264 27.2578 38.4834 27.4609C38.9574 27.6641 39.5498 27.7656 40.2607 27.7656H40.3877V30.127C39.9645 30.127 39.5752 30.11 39.2197 30.0762C38.8643 30.0592 38.5088 30.0085 38.1533 29.9238C37.8148 29.8223 37.4678 29.6868 37.1123 29.5176C36.7568 29.3483 36.3844 29.1283 35.9951 28.8574L37.29 26.8008ZM41.4287 21.6973C41.9365 21.8665 42.4528 22.0527 42.9775 22.2559C43.5023 22.459 43.9762 22.7129 44.3994 23.0176C44.8395 23.3223 45.195 23.7031 45.4658 24.1602C45.7536 24.6003 45.8975 25.1589 45.8975 25.8359C45.8975 26.4961 45.779 27.0716 45.542 27.5625C45.305 28.0534 44.9834 28.4766 44.5771 28.832C44.1878 29.1875 43.7223 29.4668 43.1807 29.6699C42.639 29.873 42.055 30.0085 41.4287 30.0762V27.6641C42.0042 27.5625 42.4443 27.3848 42.749 27.1309C43.0706 26.86 43.2314 26.5046 43.2314 26.0645C43.2314 25.6243 43.0537 25.2858 42.6982 25.0488C42.3597 24.7949 41.9365 24.5749 41.4287 24.3887V21.6973ZM53.9717 25.6582C53.9717 26.2337 54.0479 26.6823 54.2002 27.0039C54.3525 27.3255 54.5641 27.571 54.835 27.7402C55.1227 27.9095 55.4359 28.0195 55.7744 28.0703C56.1299 28.1042 56.5023 28.1211 56.8916 28.1211V30C56.6715 30.0339 56.4515 30.0592 56.2314 30.0762C56.0452 30.0931 55.8167 30.1016 55.5459 30.1016C55.292 30.1185 55.0381 30.127 54.7842 30.127C54.5303 30.127 54.2679 30.1185 53.9971 30.1016C53.7432 30.0846 53.5231 30.0592 53.3369 30.0254C52.7614 29.9238 52.3128 29.6784 51.9912 29.2891C51.6696 28.8828 51.4242 28.4427 51.2549 27.9688C51.1025 27.4779 51.001 27.0039 50.9502 26.5469C50.9163 26.0898 50.8994 25.7344 50.8994 25.4805V17.7617H49.0205V15.6797H50.8994V11.6172H53.9717V15.6797H56.2568V17.7617H53.9717V25.6582ZM73.8525 11.2871V13.3691H68.2666V30H65.1943V13.3691H59.6084V11.2871H73.8525ZM80.0732 15.6797L80.4033 17.1523V24.9219V24.9727V30H77.3311V15.6797H80.0732ZM81.4443 16.3145C81.8675 16.0775 82.3753 15.8997 82.9678 15.7812C83.5602 15.6458 84.3643 15.5781 85.3799 15.5781V18.7773C84.9059 18.6419 84.3304 18.5658 83.6533 18.5488C83.2809 18.5488 82.9001 18.5827 82.5107 18.6504C82.1383 18.7012 81.7829 18.7858 81.4443 18.9043V16.3145ZM91.1436 25.6836C91.1436 26.4453 91.2959 27.0124 91.6006 27.3848C91.9222 27.7572 92.3792 27.9772 92.9717 28.0449V30.1016C92.904 30.1185 92.7939 30.127 92.6416 30.127C92.0661 30.127 91.5075 30.0508 90.9658 29.8984C90.4411 29.7461 89.9756 29.5007 89.5693 29.1621C89.1631 28.8236 88.8415 28.375 88.6045 27.8164C88.3844 27.2578 88.2744 26.5723 88.2744 25.7598C88.2744 24.9811 88.4352 24.3125 88.7568 23.7539C89.0954 23.1784 89.5186 22.7129 90.0264 22.3574C90.5511 21.985 91.1436 21.7142 91.8037 21.5449C92.4639 21.3587 93.1325 21.2656 93.8096 21.2656H94.9268V23.0684H94.3682C94.0296 23.0684 93.6742 23.1022 93.3018 23.1699C92.9294 23.2376 92.5824 23.3646 92.2607 23.5508C91.9391 23.737 91.6683 24.0078 91.4482 24.3633C91.2451 24.7018 91.1436 25.1419 91.1436 25.6836ZM99.04 25.7598C99.04 25.8952 99.0485 26.0983 99.0654 26.3691C99.0824 26.623 99.1162 26.8854 99.167 27.1562C99.2178 27.4271 99.2939 27.6725 99.3955 27.8926C99.514 28.1126 99.6663 28.2565 99.8525 28.3242L99.04 30.0254C98.82 30.0254 98.583 29.9746 98.3291 29.873C98.0921 29.7715 97.8551 29.6276 97.6182 29.4414C97.3981 29.2552 97.2035 29.0521 97.0342 28.832C96.8818 28.5951 96.7633 28.3411 96.6787 28.0703C96.5094 28.4935 96.1709 28.8743 95.6631 29.2129C95.1722 29.5345 94.6221 29.7715 94.0127 29.9238V27.9941C94.4189 27.9095 94.7829 27.7487 95.1045 27.5117C95.443 27.2578 95.7308 26.9616 95.9678 26.623V21.2656C95.9678 20.4362 95.9255 19.776 95.8408 19.2852C95.7562 18.7943 95.6123 18.4388 95.4092 18.2188C95.2061 17.9818 94.9521 17.8379 94.6475 17.7871C94.3597 17.7194 94.0127 17.6855 93.6064 17.6855C93.234 17.6855 92.8786 17.7363 92.54 17.8379C92.2184 17.9225 91.9137 18.0326 91.626 18.168C91.3551 18.2865 91.1097 18.4219 90.8896 18.5742C90.6865 18.7266 90.5342 18.8451 90.4326 18.9297L89.29 17.1777C89.4593 16.9915 89.7132 16.8053 90.0518 16.6191C90.3903 16.416 90.7796 16.2383 91.2197 16.0859C91.6598 15.9336 92.1338 15.8151 92.6416 15.7305C93.1663 15.6289 93.708 15.5781 94.2666 15.5781C94.7744 15.5781 95.2653 15.6289 95.7393 15.7305C96.2301 15.832 96.6702 16.0013 97.0596 16.2383C97.4658 16.4753 97.8128 16.7969 98.1006 17.2031C98.4053 17.5924 98.6169 18.0833 98.7354 18.6758C98.8538 19.2682 98.93 19.8691 98.9639 20.4785C99.0146 21.071 99.04 21.6634 99.04 22.2559V25.5566V25.7598ZM113.411 19.3867C113.157 19.082 112.802 18.8027 112.345 18.5488C111.905 18.278 111.312 18.1172 110.567 18.0664V15.6289C111.498 15.6797 112.294 15.8828 112.954 16.2383C113.631 16.5768 114.241 17.0762 114.782 17.7363L113.411 19.3867ZM110.567 27.5879C111.177 27.5202 111.693 27.3763 112.116 27.1562C112.556 26.9193 112.971 26.6484 113.36 26.3438L114.503 27.9941C113.978 28.6543 113.411 29.1621 112.802 29.5176C112.192 29.8561 111.448 30.0508 110.567 30.1016V27.5879ZM103.483 22.8398C103.483 21.875 103.619 20.9694 103.89 20.123C104.177 19.2767 104.592 18.5319 105.134 17.8887C105.675 17.2454 106.31 16.7292 107.038 16.3398C107.783 15.9336 108.612 15.6966 109.526 15.6289V18.0918C108.68 18.278 108.003 18.8027 107.495 19.666C106.987 20.5124 106.733 21.5449 106.733 22.7637C106.733 23.39 106.793 23.9824 106.911 24.541C107.047 25.0827 107.233 25.5651 107.47 25.9883C107.707 26.4115 107.994 26.7669 108.333 27.0547C108.688 27.3424 109.086 27.5202 109.526 27.5879V30.1016C108.595 30.0508 107.757 29.8307 107.013 29.4414C106.268 29.0352 105.633 28.5104 105.108 27.8672C104.584 27.207 104.177 26.4453 103.89 25.582C103.619 24.7188 103.483 23.8047 103.483 22.8398ZM124.735 22.8145L130.423 30H126.919L122.755 24.5156V20.9863L126.31 15.6797H129.763L124.735 22.8145ZM118.616 30V10.2715H121.714V30H118.616ZM140.198 15.5527C141.112 15.6374 141.933 15.8828 142.661 16.2891C143.406 16.6953 144.041 17.2201 144.565 17.8633C145.09 18.5065 145.488 19.2428 145.759 20.0723C146.047 20.9017 146.19 21.765 146.19 22.6621C146.19 23.0684 146.165 23.4746 146.114 23.8809H137.405V21.6465H143.271C143.271 21.2064 143.194 20.7832 143.042 20.377C142.907 19.9707 142.695 19.5983 142.407 19.2598C142.136 18.9043 141.815 18.6081 141.442 18.3711C141.07 18.1341 140.655 17.9902 140.198 17.9395V15.5527ZM140.097 27.6133C140.283 27.6133 140.511 27.5964 140.782 27.5625C141.07 27.5117 141.366 27.4355 141.671 27.334C141.993 27.2155 142.306 27.0716 142.61 26.9023C142.932 26.7331 143.211 26.5299 143.448 26.293L144.565 27.9941C144.007 28.6882 143.355 29.2129 142.61 29.5684C141.866 29.9238 140.918 30.1016 139.767 30.1016C138.836 30.1016 137.964 29.9154 137.151 29.543C136.339 29.1536 135.645 28.6289 135.069 27.9688C134.494 27.3086 134.037 26.5384 133.698 25.6582C133.36 24.778 133.19 23.8301 133.19 22.8145C133.19 21.8496 133.343 20.9355 133.647 20.0723C133.969 19.209 134.401 18.4557 134.942 17.8125C135.484 17.1523 136.11 16.6191 136.821 16.2129C137.549 15.8066 138.328 15.5781 139.157 15.5273V17.9648C138.531 18.0833 138.015 18.3372 137.608 18.7266C137.202 19.1159 136.881 19.5645 136.644 20.0723C136.424 20.5632 136.263 21.071 136.161 21.5957C136.076 22.1204 136.034 22.569 136.034 22.9414C136.034 23.6016 136.11 24.2194 136.263 24.7949C136.432 25.3535 136.686 25.8444 137.024 26.2676C137.363 26.6738 137.778 27.0039 138.269 27.2578C138.776 27.4948 139.386 27.6133 140.097 27.6133ZM153.147 15.6797L153.478 17.1523V24.9219V24.9727V30H150.405V15.6797H153.147ZM154.519 16.3145C154.942 16.0775 155.45 15.8997 156.042 15.7812C156.634 15.6458 157.438 15.5781 158.454 15.5781V18.7773C157.98 18.6419 157.405 18.5658 156.728 18.5488C156.355 18.5488 155.974 18.5827 155.585 18.6504C155.213 18.7012 154.857 18.7858 154.519 18.9043V16.3145Z" fill="#ECEFF4"/>
</g>
<path d="M20.0456 13.1785L25.6483 1.21645C25.6793 1.15074 25.7243 1.09609 25.7786 1.05806C25.833 1.02003 25.8947 1 25.9576 1C26.0205 1 26.0823 1.02003 26.1366 1.05806C26.1909 1.09609 26.2359 1.15074 26.2669 1.21645L31.8697 13.1785C31.9053 13.2552 31.9204 13.3432 31.9129 13.4306C31.9053 13.5179 31.8756 13.6004 31.8276 13.6667C31.7796 13.733 31.7158 13.7799 31.6448 13.801C31.5739 13.8222 31.4992 13.8165 31.431 13.7848L26.0863 11.2896C26.0035 11.251 25.9117 11.251 25.8289 11.2896L20.4843 13.7857C20.416 13.8175 20.3412 13.8233 20.2701 13.8022C20.199 13.781 20.135 13.734 20.087 13.6675C20.039 13.6011 20.0092 13.5184 20.0018 13.4309C19.9944 13.3434 20.0097 13.2552 20.0456 13.1785Z" fill="#81A1C1" stroke="#81A1C1" stroke-width="1.5" stroke-linecap="round" stroke-linejoin="round"/>
<defs>
<filter id="filter0_d_419_1671" x="0.81543" y="10.2715" width="161.639" height="27.8555" filterUnits="userSpaceOnUse" color-interpolation-filters="sRGB">
<feFlood flood-opacity="0" result="BackgroundImageFix"/>
<feColorMatrix in="SourceAlpha" type="matrix" values="0 0 0 0 0 0 0 0 0 0 0 0 0 0 0 0 0 0 127 0" result="hardAlpha"/>
<feOffset dy="4"/>
<feGaussianBlur stdDeviation="2"/>
<feComposite in2="hardAlpha" operator="out"/>
<feColorMatrix type="matrix" values="0 0 0 0 0.878431 0 0 0 0 0.85098 0 0 0 0 0.85098 0 0 0 1 0"/>
<feBlend mode="normal" in2="BackgroundImageFix" result="effect1_dropShadow_419_1671"/>
<feBlend mode="normal" in="SourceGraphic" in2="effect1_dropShadow_419_1671" result="shape"/>
</filter>
</defs>
</svg>
