<svg width="159" height="36" viewBox="0 0 159 36" fill="none" xmlns="http://www.w3.org/2000/svg">
<path d="M6.41309 11.2871V27.6895H15.0205V30H3.31543V11.2871H6.41309ZM24.6943 15.6035C25.6253 15.6543 26.4717 15.8828 27.2334 16.2891C27.9951 16.6784 28.6299 17.2031 29.1377 17.8633C29.6624 18.5065 30.0687 19.2598 30.3564 20.123C30.6442 20.9863 30.7881 21.9089 30.7881 22.8906C30.7881 23.8724 30.6357 24.7949 30.3311 25.6582C30.0433 26.5046 29.637 27.2493 29.1123 27.8926C28.5876 28.5189 27.9443 29.0267 27.1826 29.416C26.4209 29.8053 25.5915 30.0339 24.6943 30.1016V27.6641C25.5407 27.4779 26.2262 26.9447 26.751 26.0645C27.2926 25.1842 27.5635 24.1263 27.5635 22.8906C27.5635 22.2643 27.4958 21.6803 27.3604 21.1387C27.2419 20.5801 27.0557 20.0807 26.8018 19.6406C26.5479 19.2005 26.2432 18.8366 25.8877 18.5488C25.5322 18.2611 25.1344 18.0749 24.6943 17.9902V15.6035ZM17.6104 22.8398C17.6104 21.8581 17.7542 20.944 18.042 20.0977C18.3298 19.2513 18.736 18.515 19.2607 17.8887C19.8024 17.2454 20.4456 16.7292 21.1904 16.3398C21.9352 15.9505 22.7562 15.7135 23.6533 15.6289V17.9902C22.807 18.1764 22.1299 18.7096 21.6221 19.5898C21.1143 20.4701 20.8604 21.528 20.8604 22.7637C20.8604 23.39 20.9196 23.9824 21.0381 24.541C21.1735 25.0996 21.3597 25.599 21.5967 26.0391C21.8337 26.4792 22.1214 26.8431 22.46 27.1309C22.8154 27.4186 23.2132 27.5964 23.6533 27.6641V30.1016C22.7223 30.0339 21.8844 29.8053 21.1396 29.416C20.3949 29.0098 19.7601 28.485 19.2354 27.8418C18.7106 27.1986 18.3044 26.4453 18.0166 25.582C17.7458 24.7188 17.6104 23.8047 17.6104 22.8398ZM34.4443 19.7676C34.4443 19.1243 34.5628 18.5488 34.7998 18.041C35.0368 17.5163 35.3669 17.0762 35.79 16.7207C36.2132 16.3483 36.6872 16.0605 37.2119 15.8574C37.7536 15.6374 38.3122 15.502 38.8877 15.4512V17.9902C38.4476 18.0749 38.1006 18.2526 37.8467 18.5234C37.6097 18.7943 37.4912 19.1751 37.4912 19.666C37.4912 20.0723 37.6182 20.4023 37.8721 20.6562C38.1429 20.8932 38.4814 21.1048 38.8877 21.291V24.0078C38.5999 23.9232 38.3037 23.8301 37.999 23.7285C37.7113 23.61 37.4235 23.4831 37.1357 23.3477C36.2386 22.8737 35.5615 22.3743 35.1045 21.8496C34.6644 21.3249 34.4443 20.6309 34.4443 19.7676ZM42.9248 18.7012C42.4678 18.4642 41.9769 18.2865 41.4521 18.168C40.9443 18.0495 40.4365 17.9733 39.9287 17.9395V15.4258C40.6904 15.4596 41.3929 15.5697 42.0361 15.7559C42.6794 15.9251 43.3057 16.2044 43.915 16.5938L42.9248 18.7012ZM35.79 26.8008C36.1286 27.0378 36.5264 27.2578 36.9834 27.4609C37.4574 27.6641 38.0498 27.7656 38.7607 27.7656H38.8877V30.127C38.4645 30.127 38.0752 30.11 37.7197 30.0762C37.3643 30.0592 37.0088 30.0085 36.6533 29.9238C36.3148 29.8223 35.9678 29.6868 35.6123 29.5176C35.2568 29.3483 34.8844 29.1283 34.4951 28.8574L35.79 26.8008ZM39.9287 21.6973C40.4365 21.8665 40.9528 22.0527 41.4775 22.2559C42.0023 22.459 42.4762 22.7129 42.8994 23.0176C43.3395 23.3223 43.695 23.7031 43.9658 24.1602C44.2536 24.6003 44.3975 25.1589 44.3975 25.8359C44.3975 26.4961 44.279 27.0716 44.042 27.5625C43.805 28.0534 43.4834 28.4766 43.0771 28.832C42.6878 29.1875 42.2223 29.4668 41.6807 29.6699C41.139 29.873 40.555 30.0085 39.9287 30.0762V27.6641C40.5042 27.5625 40.9443 27.3848 41.249 27.1309C41.5706 26.86 41.7314 26.5046 41.7314 26.0645C41.7314 25.6243 41.5537 25.2858 41.1982 25.0488C40.8597 24.7949 40.4365 24.5749 39.9287 24.3887V21.6973ZM52.4717 25.6582C52.4717 26.2337 52.5479 26.6823 52.7002 27.0039C52.8525 27.3255 53.0641 27.571 53.335 27.7402C53.6227 27.9095 53.9359 28.0195 54.2744 28.0703C54.6299 28.1042 55.0023 28.1211 55.3916 28.1211V30C55.1715 30.0339 54.9515 30.0592 54.7314 30.0762C54.5452 30.0931 54.3167 30.1016 54.0459 30.1016C53.792 30.1185 53.5381 30.127 53.2842 30.127C53.0303 30.127 52.7679 30.1185 52.4971 30.1016C52.2432 30.0846 52.0231 30.0592 51.8369 30.0254C51.2614 29.9238 50.8128 29.6784 50.4912 29.2891C50.1696 28.8828 49.9242 28.4427 49.7549 27.9688C49.6025 27.4779 49.501 27.0039 49.4502 26.5469C49.4163 26.0898 49.3994 25.7344 49.3994 25.4805V17.7617H47.5205V15.6797H49.3994V11.6172H52.4717V15.6797H54.7568V17.7617H52.4717V25.6582ZM72.3525 11.2871V13.3691H66.7666V30H63.6943V13.3691H58.1084V11.2871H72.3525ZM78.5732 15.6797L78.9033 17.1523V24.9219V24.9727V30H75.8311V15.6797H78.5732ZM79.9443 16.3145C80.3675 16.0775 80.8753 15.8997 81.4678 15.7812C82.0602 15.6458 82.8643 15.5781 83.8799 15.5781V18.7773C83.4059 18.6419 82.8304 18.5658 82.1533 18.5488C81.7809 18.5488 81.4001 18.5827 81.0107 18.6504C80.6383 18.7012 80.2829 18.7858 79.9443 18.9043V16.3145ZM89.6436 25.6836C89.6436 26.4453 89.7959 27.0124 90.1006 27.3848C90.4222 27.7572 90.8792 27.9772 91.4717 28.0449V30.1016C91.404 30.1185 91.2939 30.127 91.1416 30.127C90.5661 30.127 90.0075 30.0508 89.4658 29.8984C88.9411 29.7461 88.4756 29.5007 88.0693 29.1621C87.6631 28.8236 87.3415 28.375 87.1045 27.8164C86.8844 27.2578 86.7744 26.5723 86.7744 25.7598C86.7744 24.9811 86.9352 24.3125 87.2568 23.7539C87.5954 23.1784 88.0186 22.7129 88.5264 22.3574C89.0511 21.985 89.6436 21.7142 90.3037 21.5449C90.9639 21.3587 91.6325 21.2656 92.3096 21.2656H93.4268V23.0684H92.8682C92.5296 23.0684 92.1742 23.1022 91.8018 23.1699C91.4294 23.2376 91.0824 23.3646 90.7607 23.5508C90.4391 23.737 90.1683 24.0078 89.9482 24.3633C89.7451 24.7018 89.6436 25.1419 89.6436 25.6836ZM97.54 25.7598C97.54 25.8952 97.5485 26.0983 97.5654 26.3691C97.5824 26.623 97.6162 26.8854 97.667 27.1562C97.7178 27.4271 97.7939 27.6725 97.8955 27.8926C98.014 28.1126 98.1663 28.2565 98.3525 28.3242L97.54 30.0254C97.32 30.0254 97.083 29.9746 96.8291 29.873C96.5921 29.7715 96.3551 29.6276 96.1182 29.4414C95.8981 29.2552 95.7035 29.0521 95.5342 28.832C95.3818 28.5951 95.2633 28.3411 95.1787 28.0703C95.0094 28.4935 94.6709 28.8743 94.1631 29.2129C93.6722 29.5345 93.1221 29.7715 92.5127 29.9238V27.9941C92.9189 27.9095 93.2829 27.7487 93.6045 27.5117C93.943 27.2578 94.2308 26.9616 94.4678 26.623V21.2656C94.4678 20.4362 94.4255 19.776 94.3408 19.2852C94.2562 18.7943 94.1123 18.4388 93.9092 18.2188C93.7061 17.9818 93.4521 17.8379 93.1475 17.7871C92.8597 17.7194 92.5127 17.6855 92.1064 17.6855C91.734 17.6855 91.3786 17.7363 91.04 17.8379C90.7184 17.9225 90.4137 18.0326 90.126 18.168C89.8551 18.2865 89.6097 18.4219 89.3896 18.5742C89.1865 18.7266 89.0342 18.8451 88.9326 18.9297L87.79 17.1777C87.9593 16.9915 88.2132 16.8053 88.5518 16.6191C88.8903 16.416 89.2796 16.2383 89.7197 16.0859C90.1598 15.9336 90.6338 15.8151 91.1416 15.7305C91.6663 15.6289 92.208 15.5781 92.7666 15.5781C93.2744 15.5781 93.7653 15.6289 94.2393 15.7305C94.7301 15.832 95.1702 16.0013 95.5596 16.2383C95.9658 16.4753 96.3128 16.7969 96.6006 17.2031C96.9053 17.5924 97.1169 18.0833 97.2354 18.6758C97.3538 19.2682 97.43 19.8691 97.4639 20.4785C97.5146 21.071 97.54 21.6634 97.54 22.2559V25.5566V25.7598ZM111.911 19.3867C111.657 19.082 111.302 18.8027 110.845 18.5488C110.405 18.278 109.812 18.1172 109.067 18.0664V15.6289C109.998 15.6797 110.794 15.8828 111.454 16.2383C112.131 16.5768 112.741 17.0762 113.282 17.7363L111.911 19.3867ZM109.067 27.5879C109.677 27.5202 110.193 27.3763 110.616 27.1562C111.056 26.9193 111.471 26.6484 111.86 26.3438L113.003 27.9941C112.478 28.6543 111.911 29.1621 111.302 29.5176C110.692 29.8561 109.948 30.0508 109.067 30.1016V27.5879ZM101.983 22.8398C101.983 21.875 102.119 20.9694 102.39 20.123C102.677 19.2767 103.092 18.5319 103.634 17.8887C104.175 17.2454 104.81 16.7292 105.538 16.3398C106.283 15.9336 107.112 15.6966 108.026 15.6289V18.0918C107.18 18.278 106.503 18.8027 105.995 19.666C105.487 20.5124 105.233 21.5449 105.233 22.7637C105.233 23.39 105.293 23.9824 105.411 24.541C105.547 25.0827 105.733 25.5651 105.97 25.9883C106.207 26.4115 106.494 26.7669 106.833 27.0547C107.188 27.3424 107.586 27.5202 108.026 27.5879V30.1016C107.095 30.0508 106.257 29.8307 105.513 29.4414C104.768 29.0352 104.133 28.5104 103.608 27.8672C103.084 27.207 102.677 26.4453 102.39 25.582C102.119 24.7188 101.983 23.8047 101.983 22.8398ZM123.235 22.8145L128.923 30H125.419L121.255 24.5156V20.9863L124.81 15.6797H128.263L123.235 22.8145ZM117.116 30V10.2715H120.214V30H117.116ZM138.698 15.5527C139.612 15.6374 140.433 15.8828 141.161 16.2891C141.906 16.6953 142.541 17.2201 143.065 17.8633C143.59 18.5065 143.988 19.2428 144.259 20.0723C144.547 20.9017 144.69 21.765 144.69 22.6621C144.69 23.0684 144.665 23.4746 144.614 23.8809H135.905V21.6465H141.771C141.771 21.2064 141.694 20.7832 141.542 20.377C141.407 19.9707 141.195 19.5983 140.907 19.2598C140.636 18.9043 140.315 18.6081 139.942 18.3711C139.57 18.1341 139.155 17.9902 138.698 17.9395V15.5527ZM138.597 27.6133C138.783 27.6133 139.011 27.5964 139.282 27.5625C139.57 27.5117 139.866 27.4355 140.171 27.334C140.493 27.2155 140.806 27.0716 141.11 26.9023C141.432 26.7331 141.711 26.5299 141.948 26.293L143.065 27.9941C142.507 28.6882 141.855 29.2129 141.11 29.5684C140.366 29.9238 139.418 30.1016 138.267 30.1016C137.336 30.1016 136.464 29.9154 135.651 29.543C134.839 29.1536 134.145 28.6289 133.569 27.9688C132.994 27.3086 132.537 26.5384 132.198 25.6582C131.86 24.778 131.69 23.8301 131.69 22.8145C131.69 21.8496 131.843 20.9355 132.147 20.0723C132.469 19.209 132.901 18.4557 133.442 17.8125C133.984 17.1523 134.61 16.6191 135.321 16.2129C136.049 15.8066 136.828 15.5781 137.657 15.5273V17.9648C137.031 18.0833 136.515 18.3372 136.108 18.7266C135.702 19.1159 135.381 19.5645 135.144 20.0723C134.924 20.5632 134.763 21.071 134.661 21.5957C134.576 22.1204 134.534 22.569 134.534 22.9414C134.534 23.6016 134.61 24.2194 134.763 24.7949C134.932 25.3535 135.186 25.8444 135.524 26.2676C135.863 26.6738 136.278 27.0039 136.769 27.2578C137.276 27.4948 137.886 27.6133 138.597 27.6133ZM151.647 15.6797L151.978 17.1523V24.9219V24.9727V30H148.905V15.6797H151.647ZM153.019 16.3145C153.442 16.0775 153.95 15.8997 154.542 15.7812C155.134 15.6458 155.938 15.5781 156.954 15.5781V18.7773C156.48 18.6419 155.905 18.5658 155.228 18.5488C154.855 18.5488 154.474 18.5827 154.085 18.6504C153.713 18.7012 153.357 18.7858 153.019 18.9043V16.3145Z" fill="#ECEFF4"/>
<path d="M18.1598 13.1785L23.798 1.21645C23.8292 1.15074 23.8744 1.09609 23.9291 1.05806C23.9838 1.02003 24.0459 1 24.1092 1C24.1725 1 24.2347 1.02003 24.2893 1.05806C24.344 1.09609 24.3893 1.15074 24.4205 1.21645L30.0587 13.1785C30.0946 13.2552 30.1097 13.3432 30.1022 13.4306C30.0946 13.5179 30.0646 13.6004 30.0163 13.6667C29.9681 13.733 29.9038 13.7799 29.8324 13.801C29.761 13.8222 29.6859 13.8165 29.6172 13.7848L24.2387 11.2896C24.1554 11.251 24.063 11.251 23.9797 11.2896L18.6012 13.7857C18.5325 13.8175 18.4572 13.8233 18.3857 13.8022C18.3141 13.781 18.2498 13.734 18.2014 13.6675C18.1531 13.6011 18.1232 13.5184 18.1157 13.4309C18.1083 13.3434 18.1236 13.2552 18.1598 13.1785Z" fill="#81A1C1" stroke="#81A1C1" stroke-width="1.5" stroke-linecap="round" stroke-linejoin="round"/>
</svg>
