<svg width="143" height="35" viewBox="0 0 143 35" fill="none" xmlns="http://www.w3.org/2000/svg">
<g filter="url(#filter0_d_419_1671)">
<path d="M5.51308 10.2871V26.6895H14.1205V29H2.41543V10.2871H5.51308ZM21.9743 14.6035C22.9053 14.6543 23.7517 14.8828 24.5134 15.2891C25.2751 15.6784 25.9099 16.2031 26.4177 16.8633C26.9424 17.5065 27.3487 18.2598 27.6364 19.123C27.9242 19.9863 28.0681 20.9089 28.0681 21.8906C28.0681 22.8724 27.9157 23.7949 27.6111 24.6582C27.3233 25.5046 26.917 26.2493 26.3923 26.8926C25.8676 27.5189 25.2243 28.0267 24.4626 28.416C23.7009 28.8053 22.8715 29.0339 21.9743 29.1016V26.6641C22.8207 26.4779 23.5062 25.9447 24.031 25.0645C24.5726 24.1842 24.8435 23.1263 24.8435 21.8906C24.8435 21.2643 24.7758 20.6803 24.6404 20.1387C24.5219 19.5801 24.3357 19.0807 24.0818 18.6406C23.8279 18.2005 23.5232 17.8366 23.1677 17.5488C22.8122 17.2611 22.4144 17.0749 21.9743 16.9902V14.6035ZM14.8904 21.8398C14.8904 20.8581 15.0342 19.944 15.322 19.0977C15.6098 18.2513 16.016 17.515 16.5407 16.8887C17.0824 16.2454 17.7256 15.7292 18.4704 15.3398C19.2152 14.9505 20.0362 14.7135 20.9333 14.6289V16.9902C20.087 17.1764 19.4099 17.7096 18.9021 18.5898C18.3943 19.4701 18.1404 20.528 18.1404 21.7637C18.1404 22.39 18.1996 22.9824 18.3181 23.541C18.4535 24.0996 18.6397 24.599 18.8767 25.0391C19.1137 25.4792 19.4014 25.8431 19.74 26.1309C20.0954 26.4186 20.4932 26.5964 20.9333 26.6641V29.1016C20.0023 29.0339 19.1644 28.8053 18.4196 28.416C17.6749 28.0098 17.0401 27.485 16.5154 26.8418C15.9906 26.1986 15.5844 25.4453 15.2966 24.582C15.0258 23.7188 14.8904 22.8047 14.8904 21.8398ZM29.9043 18.7676C29.9043 18.1243 30.0228 17.5488 30.2598 17.041C30.4968 16.5163 30.8269 16.0762 31.25 15.7207C31.6732 15.3483 32.1472 15.0605 32.6719 14.8574C33.2136 14.6374 33.7722 14.502 34.3477 14.4512V16.9902C33.9076 17.0749 33.5606 17.2526 33.3067 17.5234C33.0697 17.7943 32.9512 18.1751 32.9512 18.666C32.9512 19.0723 33.0782 19.4023 33.3321 19.6562C33.6029 19.8932 33.9414 20.1048 34.3477 20.291V23.0078C34.0599 22.9232 33.7637 22.8301 33.459 22.7285C33.1713 22.61 32.8835 22.4831 32.5957 22.3477C31.6986 21.8737 31.0215 21.3743 30.5645 20.8496C30.1244 20.3249 29.9043 19.6309 29.9043 18.7676ZM38.3848 17.7012C37.9278 17.4642 37.4369 17.2865 36.9121 17.168C36.4043 17.0495 35.8965 16.9733 35.3887 16.9395V14.4258C36.1504 14.4596 36.8529 14.5697 37.4961 14.7559C38.1394 14.9251 38.7657 15.2044 39.375 15.5938L38.3848 17.7012ZM31.25 25.8008C31.5886 26.0378 31.9864 26.2578 32.4434 26.4609C32.9174 26.6641 33.5098 26.7656 34.2207 26.7656H34.3477V29.127C33.9245 29.127 33.5352 29.11 33.1797 29.0762C32.8243 29.0592 32.4688 29.0085 32.1133 28.9238C31.7748 28.8223 31.4278 28.6868 31.0723 28.5176C30.7168 28.3483 30.3444 28.1283 29.9551 27.8574L31.25 25.8008ZM35.3887 20.6973C35.8965 20.8665 36.4128 21.0527 36.9375 21.2559C37.4623 21.459 37.9362 21.7129 38.3594 22.0176C38.7995 22.3223 39.155 22.7031 39.4258 23.1602C39.7136 23.6003 39.8575 24.1589 39.8575 24.8359C39.8575 25.4961 39.739 26.0716 39.502 26.5625C39.265 27.0534 38.9434 27.4766 38.5371 27.832C38.1478 28.1875 37.6823 28.4668 37.1407 28.6699C36.599 28.873 36.015 29.0085 35.3887 29.0762V26.6641C35.9642 26.5625 36.4043 26.3848 36.709 26.1309C37.0306 25.86 37.1914 25.5046 37.1914 25.0645C37.1914 24.6243 37.0137 24.2858 36.6582 24.0488C36.3197 23.7949 35.8965 23.5749 35.3887 23.3887V20.6973ZM46.1117 24.6582C46.1117 25.2337 46.1879 25.6823 46.3402 26.0039C46.4925 26.3255 46.7041 26.571 46.975 26.7402C47.2627 26.9095 47.5759 27.0195 47.9144 27.0703C48.2699 27.1042 48.6423 27.1211 49.0316 27.1211V29C48.8115 29.0339 48.5915 29.0592 48.3714 29.0762C48.1852 29.0931 47.9567 29.1016 47.6859 29.1016C47.432 29.1185 47.1781 29.127 46.9242 29.127C46.6703 29.127 46.4079 29.1185 46.1371 29.1016C45.8832 29.0846 45.6631 29.0592 45.4769 29.0254C44.9014 28.9238 44.4528 28.6784 44.1312 28.2891C43.8096 27.8828 43.5642 27.4427 43.3949 26.9688C43.2425 26.4779 43.141 26.0039 43.0902 25.5469C43.0563 25.0898 43.0394 24.7344 43.0394 24.4805V16.7617H41.1605V14.6797H43.0394V10.6172H46.1117V14.6797H48.3968V16.7617H46.1117V24.6582ZM64.1725 10.2871V12.3691H58.5866V29H55.5143V12.3691H49.9284V10.2871H64.1725ZM68.5732 14.6797L68.9033 16.1523V23.9219V23.9727V29H65.8311V14.6797H68.5732ZM69.9443 15.3145C70.3675 15.0775 70.8753 14.8997 71.4678 14.7812C72.0602 14.6458 72.8643 14.5781 73.8799 14.5781V17.7773C73.4059 17.6419 72.8304 17.5658 72.1533 17.5488C71.7809 17.5488 71.4001 17.5827 71.0107 17.6504C70.6383 17.7012 70.2829 17.7858 69.9443 17.9043V15.3145ZM77.8236 24.6836C77.8236 25.4453 77.9759 26.0124 78.2806 26.3848C78.6022 26.7572 79.0592 26.9772 79.6517 27.0449V29.1016C79.584 29.1185 79.4739 29.127 79.3216 29.127C78.7461 29.127 78.1875 29.0508 77.6458 28.8984C77.1211 28.7461 76.6556 28.5007 76.2493 28.1621C75.8431 27.8236 75.5215 27.375 75.2845 26.8164C75.0644 26.2578 74.9544 25.5723 74.9544 24.7598C74.9544 23.9811 75.1152 23.3125 75.4368 22.7539C75.7754 22.1784 76.1986 21.7129 76.7064 21.3574C77.2311 20.985 77.8236 20.7142 78.4837 20.5449C79.1439 20.3587 79.8125 20.2656 80.4896 20.2656H81.6068V22.0684H81.0482C80.7096 22.0684 80.3542 22.1022 79.9818 22.1699C79.6094 22.2376 79.2624 22.3646 78.9407 22.5508C78.6191 22.737 78.3483 23.0078 78.1282 23.3633C77.9251 23.7018 77.8236 24.1419 77.8236 24.6836ZM85.72 24.7598C85.72 24.8952 85.7285 25.0983 85.7454 25.3691C85.7624 25.623 85.7962 25.8854 85.847 26.1562C85.8978 26.4271 85.9739 26.6725 86.0755 26.8926C86.194 27.1126 86.3463 27.2565 86.5325 27.3242L85.72 29.0254C85.5 29.0254 85.263 28.9746 85.0091 28.873C84.7721 28.7715 84.5351 28.6276 84.2982 28.4414C84.0781 28.2552 83.8835 28.0521 83.7142 27.832C83.5618 27.5951 83.4433 27.3411 83.3587 27.0703C83.1894 27.4935 82.8509 27.8743 82.3431 28.2129C81.8522 28.5345 81.3021 28.7715 80.6927 28.9238V26.9941C81.0989 26.9095 81.4629 26.7487 81.7845 26.5117C82.123 26.2578 82.4108 25.9616 82.6478 25.623V20.2656C82.6478 19.4362 82.6055 18.776 82.5208 18.2852C82.4362 17.7943 82.2923 17.4388 82.0892 17.2188C81.8861 16.9818 81.6321 16.8379 81.3275 16.7871C81.0397 16.7194 80.6927 16.6855 80.2864 16.6855C79.914 16.6855 79.5586 16.7363 79.22 16.8379C78.8984 16.9225 78.5937 17.0326 78.306 17.168C78.0351 17.2865 77.7897 17.4219 77.5696 17.5742C77.3665 17.7266 77.2142 17.8451 77.1126 17.9297L75.97 16.1777C76.1393 15.9915 76.3932 15.8053 76.7318 15.6191C77.0703 15.416 77.4596 15.2383 77.8997 15.0859C78.3398 14.9336 78.8138 14.8151 79.3216 14.7305C79.8463 14.6289 80.388 14.5781 80.9466 14.5781C81.4544 14.5781 81.9453 14.6289 82.4193 14.7305C82.9101 14.832 83.3502 15.0013 83.7396 15.2383C84.1458 15.4753 84.4928 15.7969 84.7806 16.2031C85.0853 16.5924 85.2969 17.0833 85.4154 17.6758C85.5338 18.2682 85.61 18.8691 85.6439 19.4785C85.6946 20.071 85.72 20.6634 85.72 21.2559V24.5566V24.7598ZM98.2711 18.3867C98.0172 18.082 97.6618 17.8027 97.2047 17.5488C96.7646 17.278 96.1722 17.1172 95.4274 17.0664V14.6289C96.3584 14.6797 97.1539 14.8828 97.8141 15.2383C98.4912 15.5768 99.1006 16.0762 99.6422 16.7363L98.2711 18.3867ZM95.4274 26.5879C96.0368 26.5202 96.553 26.3763 96.9762 26.1562C97.4163 25.9193 97.831 25.6484 98.2204 25.3438L99.3629 26.9941C98.8382 27.6543 98.2711 28.1621 97.6618 28.5176C97.0524 28.8561 96.3076 29.0508 95.4274 29.1016V26.5879ZM88.3434 21.8398C88.3434 20.875 88.4788 19.9694 88.7496 19.123C89.0374 18.2767 89.4521 17.5319 89.9938 16.8887C90.5355 16.2454 91.1702 15.7292 91.8981 15.3398C92.6429 14.9336 93.4723 14.6966 94.3864 14.6289V17.0918C93.54 17.278 92.8629 17.8027 92.3551 18.666C91.8473 19.5124 91.5934 20.5449 91.5934 21.7637C91.5934 22.39 91.6526 22.9824 91.7711 23.541C91.9066 24.0827 92.0927 24.5651 92.3297 24.9883C92.5667 25.4115 92.8545 25.7669 93.193 26.0547C93.5485 26.3424 93.9463 26.5202 94.3864 26.5879V29.1016C93.4554 29.0508 92.6175 28.8307 91.8727 28.4414C91.1279 28.0352 90.4931 27.5104 89.9684 26.8672C89.4437 26.207 89.0374 25.4453 88.7496 24.582C88.4788 23.7188 88.3434 22.8047 88.3434 21.8398ZM107.775 21.8145L113.463 29H109.959L105.795 23.5156V19.9863L109.35 14.6797H112.803L107.775 21.8145ZM101.656 29V9.27148H104.754V29H101.656ZM121.418 14.5527C122.332 14.6374 123.153 14.8828 123.881 15.2891C124.626 15.6953 125.261 16.2201 125.785 16.8633C126.31 17.5065 126.708 18.2428 126.979 19.0723C127.267 19.9017 127.41 20.765 127.41 21.6621C127.41 22.0684 127.385 22.4746 127.334 22.8809H118.625V20.6465H124.491C124.491 20.2064 124.414 19.7832 124.262 19.377C124.127 18.9707 123.915 18.5983 123.627 18.2598C123.356 17.9043 123.035 17.6081 122.662 17.3711C122.29 17.1341 121.875 16.9902 121.418 16.9395V14.5527ZM121.317 26.6133C121.503 26.6133 121.731 26.5964 122.002 26.5625C122.29 26.5117 122.586 26.4355 122.891 26.334C123.213 26.2155 123.526 26.0716 123.83 25.9023C124.152 25.7331 124.431 25.5299 124.668 25.293L125.785 26.9941C125.227 27.6882 124.575 28.2129 123.83 28.5684C123.086 28.9238 122.138 29.1016 120.987 29.1016C120.056 29.1016 119.184 28.9154 118.371 28.543C117.559 28.1536 116.865 27.6289 116.289 26.9688C115.714 26.3086 115.257 25.5384 114.918 24.6582C114.58 23.778 114.41 22.8301 114.41 21.8145C114.41 20.8496 114.563 19.9355 114.867 19.0723C115.189 18.209 115.621 17.4557 116.162 16.8125C116.704 16.1523 117.33 15.6191 118.041 15.2129C118.769 14.8066 119.548 14.5781 120.377 14.5273V16.9648C119.751 17.0833 119.235 17.3372 118.828 17.7266C118.422 18.1159 118.101 18.5645 117.864 19.0723C117.644 19.5632 117.483 20.071 117.381 20.5957C117.296 21.1204 117.254 21.569 117.254 21.9414C117.254 22.6016 117.33 23.2194 117.483 23.7949C117.652 24.3535 117.906 24.8444 118.244 25.2676C118.583 25.6738 118.998 26.0039 119.489 26.2578C119.996 26.4948 120.606 26.6133 121.317 26.6133ZM132.547 14.6797L132.878 16.1523V23.9219V23.9727V29H129.805V14.6797H132.547ZM133.919 15.3145C134.342 15.0775 134.85 14.8997 135.442 14.7812C136.034 14.6458 136.838 14.5781 137.854 14.5781V17.7773C137.38 17.6419 136.805 17.5658 136.128 17.5488C135.755 17.5488 135.374 17.5827 134.985 17.6504C134.613 17.7012 134.257 17.7858 133.919 17.9043V15.3145Z" fill="#ECEFF4"/>
</g>
<path d="M16.0424 12.4043L21.2512 1.20269C21.28 1.14116 21.3218 1.08998 21.3723 1.05437C21.4228 1.01876 21.4802 1 21.5387 1C21.5972 1 21.6546 1.01876 21.7051 1.05437C21.7556 1.08998 21.7974 1.14116 21.8262 1.20269L27.035 12.4043C27.0681 12.4761 27.0822 12.5585 27.0752 12.6403C27.0682 12.7221 27.0405 12.7993 26.9959 12.8614C26.9513 12.9235 26.892 12.9674 26.826 12.9872C26.76 13.007 26.6906 13.0017 26.6272 12.972L21.6583 10.6354C21.5814 10.5993 21.496 10.5993 21.4191 10.6354L16.4502 12.9728C16.3867 13.0027 16.3172 13.0081 16.2511 12.9883C16.185 12.9685 16.1255 12.9245 16.0809 12.8622C16.0362 12.8 16.0086 12.7226 16.0017 12.6406C15.9948 12.5587 16.009 12.4761 16.0424 12.4043Z" fill="#81A1C1" stroke="#81A1C1" stroke-width="1.5" stroke-linecap="round" stroke-linejoin="round"/>
<defs>
<filter id="filter0_d_419_1671" x="1.41541" y="6.27148" width="141.439" height="25.8555" filterUnits="userSpaceOnUse" color-interpolation-filters="sRGB">
<feFlood flood-opacity="0" result="BackgroundImageFix"/>
<feColorMatrix in="SourceAlpha" type="matrix" values="0 0 0 0 0 0 0 0 0 0 0 0 0 0 0 0 0 0 127 0" result="hardAlpha"/>
<feOffset dx="2"/>
<feGaussianBlur stdDeviation="1.5"/>
<feComposite in2="hardAlpha" operator="out"/>
<feColorMatrix type="matrix" values="0 0 0 0 0.878431 0 0 0 0 0.85098 0 0 0 0 0.85098 0 0 0 1 0"/>
<feBlend mode="normal" in2="BackgroundImageFix" result="effect1_dropShadow_419_1671"/>
<feBlend mode="normal" in="SourceGraphic" in2="effect1_dropShadow_419_1671" result="shape"/>
</filter>
</defs>
</svg>
