<svg width="14" height="15" viewBox="0 0 14 15" fill="none" xmlns="http://www.w3.org/2000/svg">
<path d="M1.04559 13.1785L6.64834 1.21645C6.67935 1.15074 6.72431 1.09609 6.77865 1.05806C6.83298 1.02003 6.89474 1 6.95763 1C7.02052 1 7.08228 1.02003 7.13661 1.05806C7.19095 1.09609 7.23591 1.15074 7.26692 1.21645L12.8697 13.1785C12.9053 13.2552 12.9204 13.3432 12.9129 13.4306C12.9053 13.5179 12.8756 13.6004 12.8276 13.6667C12.7796 13.733 12.7158 13.7799 12.6448 13.801C12.5739 13.8222 12.4992 13.8165 12.431 13.7848L7.08632 11.2896C7.00354 11.251 6.91172 11.251 6.82894 11.2896L1.48428 13.7857C1.41599 13.8175 1.34118 13.8233 1.27007 13.8022C1.19896 13.781 1.13502 13.734 1.087 13.6675C1.03899 13.6011 1.00924 13.5184 1.00183 13.4309C0.994412 13.3434 1.0097 13.2552 1.04559 13.1785Z" fill="#81A1C1" stroke="#81A1C1" stroke-width="1.5" stroke-linecap="round" stroke-linejoin="round"/>
</svg>
